<mxfile host="app.diagrams.net" agent="Mozilla/5.0 (Windows NT 10.0; Win64; x64) AppleWebKit/537.36 (KHTML, like Gecko) Chrome/139.0.0.0 Safari/537.36 Edg/139.0.0.0" version="28.1.1">
  <diagram name="Trang-1" id="bkw-b8cfBhNPXRHv5hc2">
    <mxGraphModel dx="1273" dy="570" grid="1" gridSize="10" guides="1" tooltips="1" connect="1" arrows="1" fold="1" page="1" pageScale="1" pageWidth="3300" pageHeight="4681" math="0" shadow="0">
      <root>
        <mxCell id="0" />
        <mxCell id="1" parent="0" />
        <mxCell id="I1r3URm_D5xGRLia7ZML-3" value="" style="edgeStyle=orthogonalEdgeStyle;rounded=0;orthogonalLoop=1;jettySize=auto;html=1;" edge="1" parent="1" source="I1r3URm_D5xGRLia7ZML-1" target="I1r3URm_D5xGRLia7ZML-2">
          <mxGeometry relative="1" as="geometry" />
        </mxCell>
        <mxCell id="I1r3URm_D5xGRLia7ZML-1" value="Bắt đầu" style="strokeWidth=2;html=1;shape=mxgraph.flowchart.start_1;whiteSpace=wrap;" vertex="1" parent="1">
          <mxGeometry x="490" y="80" width="100" height="60" as="geometry" />
        </mxCell>
        <mxCell id="I1r3URm_D5xGRLia7ZML-5" value="" style="edgeStyle=orthogonalEdgeStyle;rounded=0;orthogonalLoop=1;jettySize=auto;html=1;" edge="1" parent="1" source="I1r3URm_D5xGRLia7ZML-2" target="I1r3URm_D5xGRLia7ZML-4">
          <mxGeometry relative="1" as="geometry" />
        </mxCell>
        <mxCell id="I1r3URm_D5xGRLia7ZML-2" value="Vào cửa hàng" style="whiteSpace=wrap;html=1;strokeWidth=2;" vertex="1" parent="1">
          <mxGeometry x="490" y="180" width="100" height="40" as="geometry" />
        </mxCell>
        <mxCell id="I1r3URm_D5xGRLia7ZML-7" value="" style="edgeStyle=orthogonalEdgeStyle;rounded=0;orthogonalLoop=1;jettySize=auto;html=1;" edge="1" parent="1" source="I1r3URm_D5xGRLia7ZML-4" target="I1r3URm_D5xGRLia7ZML-6">
          <mxGeometry relative="1" as="geometry" />
        </mxCell>
        <mxCell id="I1r3URm_D5xGRLia7ZML-4" value="Tìm món đồ" style="shape=parallelogram;html=1;strokeWidth=2;perimeter=parallelogramPerimeter;whiteSpace=wrap;rounded=1;arcSize=12;size=0.23;" vertex="1" parent="1">
          <mxGeometry x="480" y="260" width="120" height="60" as="geometry" />
        </mxCell>
        <mxCell id="I1r3URm_D5xGRLia7ZML-9" value="" style="edgeStyle=orthogonalEdgeStyle;rounded=0;orthogonalLoop=1;jettySize=auto;html=1;" edge="1" parent="1" source="I1r3URm_D5xGRLia7ZML-6" target="I1r3URm_D5xGRLia7ZML-8">
          <mxGeometry relative="1" as="geometry" />
        </mxCell>
        <mxCell id="I1r3URm_D5xGRLia7ZML-11" value="" style="edgeStyle=orthogonalEdgeStyle;rounded=0;orthogonalLoop=1;jettySize=auto;html=1;" edge="1" parent="1" source="I1r3URm_D5xGRLia7ZML-6" target="I1r3URm_D5xGRLia7ZML-10">
          <mxGeometry relative="1" as="geometry" />
        </mxCell>
        <mxCell id="I1r3URm_D5xGRLia7ZML-6" value="Món đồ có không" style="rhombus;whiteSpace=wrap;html=1;strokeWidth=2;rounded=1;arcSize=12;" vertex="1" parent="1">
          <mxGeometry x="470" y="390" width="140" height="80" as="geometry" />
        </mxCell>
        <mxCell id="I1r3URm_D5xGRLia7ZML-15" value="" style="edgeStyle=orthogonalEdgeStyle;rounded=0;orthogonalLoop=1;jettySize=auto;html=1;" edge="1" parent="1" source="I1r3URm_D5xGRLia7ZML-8" target="I1r3URm_D5xGRLia7ZML-14">
          <mxGeometry relative="1" as="geometry" />
        </mxCell>
        <mxCell id="I1r3URm_D5xGRLia7ZML-8" value="Hỏi nhân viên" style="rhombus;whiteSpace=wrap;html=1;strokeWidth=2;rounded=1;arcSize=12;" vertex="1" parent="1">
          <mxGeometry x="260" y="390" width="100" height="80" as="geometry" />
        </mxCell>
        <mxCell id="I1r3URm_D5xGRLia7ZML-13" value="" style="edgeStyle=orthogonalEdgeStyle;rounded=0;orthogonalLoop=1;jettySize=auto;html=1;" edge="1" parent="1" source="I1r3URm_D5xGRLia7ZML-10" target="I1r3URm_D5xGRLia7ZML-12">
          <mxGeometry relative="1" as="geometry" />
        </mxCell>
        <mxCell id="I1r3URm_D5xGRLia7ZML-10" value="Mua" style="whiteSpace=wrap;html=1;strokeWidth=2;rounded=1;arcSize=12;" vertex="1" parent="1">
          <mxGeometry x="480" y="530" width="120" height="60" as="geometry" />
        </mxCell>
        <mxCell id="I1r3URm_D5xGRLia7ZML-12" value="End" style="strokeWidth=2;html=1;shape=mxgraph.flowchart.start_1;whiteSpace=wrap;" vertex="1" parent="1">
          <mxGeometry x="490" y="630" width="100" height="60" as="geometry" />
        </mxCell>
        <mxCell id="I1r3URm_D5xGRLia7ZML-14" value="Về" style="whiteSpace=wrap;html=1;strokeWidth=2;rounded=1;arcSize=12;" vertex="1" parent="1">
          <mxGeometry x="90" y="400" width="120" height="60" as="geometry" />
        </mxCell>
        <mxCell id="I1r3URm_D5xGRLia7ZML-16" style="edgeStyle=orthogonalEdgeStyle;rounded=0;orthogonalLoop=1;jettySize=auto;html=1;entryX=0;entryY=0.5;entryDx=0;entryDy=0;entryPerimeter=0;" edge="1" parent="1" source="I1r3URm_D5xGRLia7ZML-14" target="I1r3URm_D5xGRLia7ZML-12">
          <mxGeometry relative="1" as="geometry">
            <Array as="points">
              <mxPoint x="150" y="660" />
            </Array>
          </mxGeometry>
        </mxCell>
      </root>
    </mxGraphModel>
  </diagram>
</mxfile>
